<?xml version="1.0" encoding="UTF-8"?>
<svg width="35px" height="16px" viewBox="0 0 35 16" version="1.1" xmlns="http://www.w3.org/2000/svg" xmlns:xlink="http://www.w3.org/1999/xlink">
    <title>编组 4</title>
    <defs>
        <linearGradient x1="-34.6658719%" y1="32.1680131%" x2="124.267173%" y2="32.1680131%" id="linearGradient-1">
            <stop stop-color="#FEE410" offset="0%"></stop>
            <stop stop-color="#FF9E3F" offset="100%"></stop>
        </linearGradient>
    </defs>
    <g id="Page-1" stroke="none" stroke-width="1" fill="none" fill-rule="evenodd">
        <g id="导航栏变化" transform="translate(-912.000000, -10.000000)">
            <g id="编组-4" transform="translate(912.000000, 10.265182)">
                <path d="M2,0 L33,0 C34.1045695,-2.02906125e-16 35,0.8954305 35,2 L35,11.0320088 C35,12.1365783 34.1045695,13.0320088 33,13.0320088 L6.60776774,13.0320088 L6.60776774,13.0320088 L5.01255776,15 L3.42957832,13.0320088 L2,13.0320088 C0.8954305,13.0320088 1.3527075e-16,12.1365783 0,11.0320088 L0,2 C-1.3527075e-16,0.8954305 0.8954305,2.02906125e-16 2,0 Z" id="矩形" fill="url(#linearGradient-1)"></path>
                <path d="M8.17,9.87481826 L8.17,4.65481826 L8.21,4.65481826 L11.78,9.87481826 L12.92,9.87481826 L12.92,2.73481826 L11.74,2.73481826 L11.74,7.88481826 L11.7,7.88481826 L8.17,2.73481826 L7,2.73481826 L7,9.87481826 L8.17,9.87481826 Z M19.64,9.87481826 L19.64,8.87481826 L15.49,8.87481826 L15.49,6.71481826 L19.23,6.71481826 L19.23,5.71481826 L15.49,5.71481826 L15.49,3.73481826 L19.47,3.73481826 L19.47,2.73481826 L14.32,2.73481826 L14.32,9.87481826 L19.64,9.87481826 Z M23.39,9.87481826 L24.79,4.50481826 L24.83,4.50481826 L26.22,9.87481826 L27.46,9.87481826 L29.52,2.73481826 L28.2,2.73481826 L26.86,8.16481826 L26.82,8.16481826 L25.41,2.73481826 L24.2,2.73481826 L22.79,8.16481826 L22.75,8.16481826 L21.41,2.73481826 L20.09,2.73481826 L22.14,9.87481826 L23.39,9.87481826 Z" id="NEW" fill="#FFFFFF" fill-rule="nonzero"></path>
            </g>
        </g>
    </g>
</svg>